<svg width="48" height="49" viewBox="0 0 48 49" fill="none" xmlns="http://www.w3.org/2000/svg">
<path d="M48 24.0879C48 10.7845 37.2548 0 24 0C10.7452 0 0 10.7845 0 24.0879C0 37.3913 10.7452 48.1758 24 48.1758C37.2548 48.1758 48 37.3913 48 24.0879Z" fill="#002F3A"/>
<path d="M33.1948 23.8838C32.0162 23.1135 30.5833 23.1528 29.4291 23.7179C28.562 22.8982 27.4695 22.2213 26.1815 21.8544C26.4785 20.8373 26.7957 19.7958 27.1711 18.7738C29.5355 19.1533 31.8145 18.5747 32.1969 18.4703C34.9768 17.7048 36.092 16.5086 36.5256 15.5465C36.5357 15.5273 36.5493 15.5116 36.5589 15.4919C37.5328 13.6285 35.7858 11.499 33.8476 11.4361C29.9756 11.2335 27.6498 15.1321 26.3858 18.2515C25.6831 18.0602 24.9958 17.7646 24.3745 17.3204C24.7154 17.0165 25.0269 16.6684 25.3007 16.2693C25.8284 15.4806 26.181 14.4713 25.9286 13.4826C25.6998 12.6502 25.1699 12.1869 24.5784 12.024C24.553 12.0161 24.5268 12.0113 24.501 12.0043C24.4524 11.9934 24.4047 11.9785 24.3557 11.9711C24.2503 11.9523 24.1431 11.9392 24.0333 11.9392C24.0236 11.9401 24.0118 11.9401 23.9983 11.9392C23.2597 11.9392 22.6039 12.3777 22.2828 13.0869C21.9008 13.9328 21.9529 15.3461 23.2449 16.7789C23.37 16.9178 23.503 17.0423 23.6364 17.1645C22.9439 17.6598 22.1541 17.9899 21.3132 18.1843C20.9107 17.175 20.4745 16.3012 20.0169 15.5469C14.8778 6.51174 5.94773 14.8285 14.8778 18.3489C16.7928 18.9839 19.1235 19.2848 21.1999 18.8511C21.3701 19.3119 21.5337 19.7953 21.6899 20.3106C21.84 20.805 21.9844 21.2893 22.1257 21.7627C20.6631 22.116 19.4433 22.8807 18.4983 23.8C18.4808 23.7913 18.4624 23.783 18.444 23.7751C16.9967 23.1196 14.8157 23.3126 13.0359 25.8106C11.8848 27.4256 11.3659 29.0183 11.2574 30.4403C10.5044 36.56 17.6994 40.1323 22.2517 32.0771C23.0147 30.7979 23.6329 29.4489 24.172 28.0663C24.5456 29.0323 24.9411 29.9437 25.3926 30.7722C27.1379 34.3152 29.0306 35.7442 30.4993 36.2879C32.0249 36.9294 33.7006 36.8111 35.2918 35.2935C38.4122 31.998 36.6914 26.215 33.1948 23.8838ZM20.1193 27.5885C19.8292 28.8174 19.207 29.6166 18.4125 29.7826C17.8862 29.89 17.3734 29.6909 17.037 29.2415C16.4796 28.4991 16.5465 27.3108 17.2159 26.0617C17.5497 25.4381 18.0017 24.8031 18.5643 24.2227C19.7806 24.9066 20.4286 26.2779 20.1188 27.5889L20.1193 27.5885ZM16.9105 25.8984C16.1768 27.2688 16.1199 28.596 16.76 29.4485C17.1722 29.9983 17.8328 30.2577 18.483 30.1201C19.4153 29.9258 20.1341 29.0323 20.4557 27.668C20.7935 26.2377 20.1131 24.7442 18.8194 23.9708C19.7159 23.1222 20.86 22.4208 22.2255 22.0951C22.2263 22.0977 22.2268 22.1003 22.2276 22.1025C22.719 23.7502 23.1792 25.2813 23.6679 26.6976C22.2294 30.8752 20.2466 34.8563 16.6174 35.9787C14.3384 36.5102 12.2939 34.6681 11.8144 32.5068C11.6135 31.7687 11.5672 31.0067 11.6275 30.2464C11.7671 28.938 12.2672 27.4868 13.3194 26.0102C14.4779 24.3848 15.8054 23.8013 16.9512 23.8013C17.4194 23.8013 17.8564 23.8991 18.2406 24.0625C17.6897 24.645 17.2448 25.277 16.9114 25.8984H16.9105ZM22.5645 22.023C23.0239 21.9365 23.5096 21.8889 24.0131 21.899C24.4126 21.8946 24.7792 21.9278 25.138 21.9785C24.7372 23.3135 24.3212 24.7411 23.8491 26.1604C23.4177 24.8743 23.0034 23.4952 22.5641 22.023H22.5645ZM25.2395 21.6435C24.847 21.5837 24.4445 21.5435 24.0131 21.554C23.4667 21.5404 22.9557 21.595 22.4652 21.6894C22.3213 21.2077 22.1738 20.7146 22.0211 20.2111C21.8671 19.7027 21.7048 19.2245 21.5372 18.7673C22.4731 18.5315 23.3455 18.1358 24.095 17.5445C24.7613 18.0371 25.5011 18.3616 26.2576 18.5708C25.9085 19.4787 25.5777 20.5242 25.2395 21.6431V21.6435ZM29.8837 24.6979C29.9297 24.7534 29.9712 24.8101 30.0154 24.866C30.4595 25.4547 30.8244 26.1032 31.0851 26.7946C31.3678 27.6606 31.4356 28.803 30.6852 29.4232C29.913 30.0581 28.933 29.5061 28.4854 28.7336C27.5224 27.185 27.9993 25.1626 29.5687 24.345C29.6615 24.4446 29.7542 24.5442 29.8408 24.6464C29.8548 24.6638 29.8701 24.6809 29.8837 24.6983V24.6979ZM30.7771 13.1293C32.3513 11.6942 35.4397 11.4951 36.2793 13.7695C36.4937 14.5329 36.3629 15.1989 36.0234 15.7732C35.3815 16.7719 34.0239 17.6087 32.105 18.1371C31.7379 18.2384 29.5534 18.7935 27.2884 18.4454C28.0632 16.4208 29.1045 14.5115 30.7771 13.1297V13.1293ZM22.5982 13.2297C22.7925 12.7996 23.1232 12.5017 23.5227 12.3677C23.5892 12.3484 23.6566 12.3353 23.7244 12.3253C23.7782 12.3153 23.832 12.3052 23.888 12.3013C24.616 12.2746 25.3581 12.7515 25.5051 13.5852C25.6875 14.4071 25.3642 15.2762 24.8641 15.9688C24.5837 16.3479 24.2665 16.6745 23.9213 16.9567C23.7773 16.8283 23.6351 16.6968 23.5013 16.5488C22.3208 15.2391 22.2609 13.9756 22.5978 13.2297H22.5982ZM15.111 17.6995C7.72841 15.0137 14.0019 8.28655 19.0959 14.77C19.7631 15.6788 20.4001 16.8331 20.9729 18.2607C19.0347 18.6206 16.8812 18.3096 15.111 17.6991V17.6995ZM26.0839 22.185C27.2735 22.5244 28.2894 23.1392 29.1049 23.8878C27.9201 24.6057 27.1247 25.9154 27.4048 27.4754C27.5859 29.131 29.339 31.1962 31.0265 29.8302C31.9518 29.0183 31.8696 27.6776 31.4964 26.6469C31.1319 25.7377 30.5846 24.9058 29.91 24.193C29.9782 24.1677 30.0443 24.1393 30.116 24.1184C32.0717 23.4642 33.9307 24.9839 34.8928 26.5841C37.1412 29.6315 36.8879 35.6656 32.332 36.194C31.4128 36.2189 30.5855 35.9844 29.8351 35.5865C28.3174 34.7135 26.8793 33.006 25.7024 30.6163L25.6989 30.6101C25.1997 29.6939 24.7639 28.6812 24.3557 27.5894C25.019 25.8168 25.5598 23.9943 26.0848 22.185H26.0839Z" fill="url(#paint0_linear_6743_1406)"/>
<path d="M32.1966 18.4703C34.389 17.8663 35.5436 16.9951 36.1474 16.1819L35.9536 15.8662C35.2881 16.823 33.9629 17.6257 32.1043 18.1371C31.7372 18.2384 29.5527 18.7935 27.2882 18.4454L27.1709 18.7738C29.5352 19.1538 31.8138 18.5747 32.1962 18.4703H32.1966Z" fill="url(#paint1_linear_6743_1406)"/>
<path d="M24.0947 17.5449C24.7611 18.0375 25.5013 18.362 26.2574 18.5712L26.3851 18.2515C25.6825 18.0603 24.9951 17.7646 24.3739 17.3209L24.0947 17.5449Z" fill="url(#paint2_linear_6743_1406)"/>
<path d="M23.6364 17.1654L23.9212 16.9567C23.7772 16.8283 23.635 16.6968 23.5016 16.5488C22.3212 15.2391 22.2608 13.9761 22.5981 13.2302C22.7924 12.8 23.1232 12.5022 23.523 12.3681C23.5891 12.3489 23.6569 12.3358 23.7247 12.3262C23.7593 12.3196 23.7947 12.3157 23.8297 12.3109L23.765 11.9576C23.124 12.0397 22.5697 12.4546 22.2831 13.0882C21.9012 13.9342 21.9532 15.3478 23.2452 16.7802C23.3703 16.9191 23.5034 17.0436 23.6368 17.1659L23.6364 17.1654Z" fill="url(#paint3_linear_6743_1406)"/>
<path d="M29.1055 23.8882L29.4292 23.7179C28.5621 22.8982 27.4696 22.2213 26.1815 21.8544L26.084 22.1855C27.2736 22.5248 28.2895 23.1397 29.1055 23.8882Z" fill="url(#paint4_linear_6743_1406)"/>
<path d="M24.0133 21.554C23.4664 21.5404 22.9558 21.595 22.4653 21.6898L22.5646 22.0234C23.024 21.937 23.5101 21.8894 24.0133 21.8994C24.4127 21.895 24.7793 21.9282 25.1381 21.9789L25.2396 21.6439C24.8472 21.5841 24.4446 21.5439 24.0133 21.554Z" fill="url(#paint5_linear_6743_1406)"/>
<path d="M18.4981 23.8004C18.4806 23.7917 18.4623 23.7834 18.4443 23.7755L18.8193 23.9712C19.7158 23.1226 20.8599 22.4213 22.2253 22.0955L22.126 21.7632C20.663 22.1165 19.4436 22.8816 18.4986 23.8004H18.4981Z" fill="url(#paint6_linear_6743_1406)"/>
<path d="M20.4559 27.668C20.7936 26.2378 20.1133 24.7442 18.8196 23.9708L18.5649 24.2223C19.7812 24.9062 20.4292 26.2771 20.1199 27.5885C19.916 28.4515 19.5463 29.0961 19.0707 29.4646L19.3984 29.6454C19.881 29.2179 20.2507 28.5406 20.4563 27.668H20.4559Z" fill="url(#paint7_linear_6743_1406)"/>
<path d="M12.2476 27.9147C12.5123 27.2911 12.8605 26.6535 13.3186 26.0107C14.4776 24.3852 15.8045 23.8018 16.9504 23.8018C17.4185 23.8018 17.8556 23.8996 18.2398 24.0629L18.4983 23.8004C18.4808 23.7917 18.4625 23.7834 18.4445 23.7756C16.9972 23.12 14.8162 23.3131 13.0364 25.8111C12.5963 26.4286 12.2502 27.0422 11.9824 27.6449L12.2476 27.9152V27.9147Z" fill="url(#paint8_linear_6743_1406)"/>
<path d="M28.4884 35.0594L28.8446 34.8825C27.6957 33.9209 26.6185 32.4793 25.7015 30.6167L25.698 30.6106C25.1988 29.6943 24.763 28.6816 24.3548 27.5898L24.1724 28.0663C24.546 29.0323 24.9415 29.9437 25.393 30.7722C26.4129 32.8422 27.4822 34.1868 28.4889 35.059L28.4884 35.0594Z" fill="url(#paint9_linear_6743_1406)"/>
<path d="M22.2256 22.0955C22.226 22.0981 22.2269 22.1007 22.2278 22.1029C22.7195 23.7506 23.1794 25.2822 23.6681 26.698L23.8501 26.1609C23.4187 24.8748 23.0044 23.4956 22.5651 22.0234L22.226 22.0955H22.2256Z" fill="url(#paint10_linear_6743_1406)"/>
<path d="M21.6902 20.3111C21.8403 20.8054 21.9847 21.2898 22.126 21.7632L22.465 21.6898C22.3211 21.2081 22.1737 20.715 22.0214 20.2115C21.8674 19.7032 21.7051 19.225 21.5375 18.7682L21.2002 18.852C21.37 19.3127 21.534 19.7962 21.6902 20.3115V20.3111Z" fill="url(#paint11_linear_6743_1406)"/>
<path d="M14.9833 12.0711C16.2434 12.2288 17.7121 13.0096 19.0955 14.7705C19.7632 15.6793 20.3998 16.8335 20.9725 18.2611L21.3129 18.1847C20.9104 17.1755 20.4742 16.3016 20.0165 15.5474C18.5036 12.8874 16.6621 11.7327 15.0446 11.5152L14.9829 12.0711H14.9833Z" fill="url(#paint12_linear_6743_1406)"/>
<path d="M29.1054 23.8882C27.9206 24.6062 27.1252 25.9159 27.4048 27.4758C27.5207 28.5336 28.2794 29.7546 29.2515 30.145L29.5403 29.6319C29.1124 29.4913 28.7234 29.145 28.4854 28.7336C27.522 27.185 27.9994 25.1626 29.5687 24.345L29.1054 23.8882Z" fill="url(#paint13_linear_6743_1406)"/>
<path d="M33.1949 23.8839C32.0167 23.1135 30.5838 23.1528 29.4292 23.7179L29.9096 24.1935C29.9778 24.1682 30.0439 24.1398 30.1157 24.1188C32.0714 23.4646 33.9303 24.9844 34.892 26.5845C34.9226 26.6256 34.9506 26.6697 34.9799 26.712L35.4582 26.222C34.8504 25.2857 34.0795 24.4739 33.1945 23.8839H33.1949Z" fill="url(#paint14_linear_6743_1406)"/>
<defs>
<linearGradient id="paint0_linear_6743_1406" x1="15.8426" y1="37.3478" x2="31.7127" y2="9.80958" gradientUnits="userSpaceOnUse">
<stop stop-color="#F3D9CA"/>
<stop offset="0.02" stop-color="#DDC0B2"/>
<stop offset="0.05" stop-color="#B49385"/>
<stop offset="0.08" stop-color="#977265"/>
<stop offset="0.11" stop-color="#855E52"/>
<stop offset="0.13" stop-color="#7F574B"/>
<stop offset="0.21" stop-color="#90665C"/>
<stop offset="0.37" stop-color="#AD8079"/>
<stop offset="0.44" stop-color="#C29B91"/>
<stop offset="0.55" stop-color="#E2C4B6"/>
<stop offset="0.64" stop-color="#F6DDCD"/>
<stop offset="0.69" stop-color="#FEE7D6"/>
<stop offset="0.74" stop-color="#F6DDCD"/>
<stop offset="0.82" stop-color="#E0C2B4"/>
<stop offset="0.91" stop-color="#C49E94"/>
<stop offset="0.93" stop-color="#CDA99E"/>
<stop offset="0.97" stop-color="#E5C7B9"/>
<stop offset="1" stop-color="#FFE8D7"/>
</linearGradient>
<linearGradient id="paint1_linear_6743_1406" x1="29.9478" y1="20.374" x2="33.3956" y2="14.3916" gradientUnits="userSpaceOnUse">
<stop stop-color="#7F574B" stop-opacity="0.6"/>
<stop offset="0.59" stop-color="#9B7067" stop-opacity="0.22"/>
<stop offset="1" stop-color="#AD8079" stop-opacity="0"/>
</linearGradient>
<linearGradient id="paint2_linear_6743_1406" x1="26.3851" y1="17.9458" x2="24.0947" y2="17.9458" gradientUnits="userSpaceOnUse">
<stop stop-color="#7F574B" stop-opacity="0.6"/>
<stop offset="1" stop-color="#7F574B" stop-opacity="0.6"/>
</linearGradient>
<linearGradient id="paint3_linear_6743_1406" x1="22.9985" y1="17.1654" x2="22.9985" y2="11.9571" gradientUnits="userSpaceOnUse">
<stop stop-color="#7F574B" stop-opacity="0.6"/>
<stop offset="0.24" stop-color="#865E52" stop-opacity="0.5"/>
<stop offset="0.68" stop-color="#9B7067" stop-opacity="0.23"/>
<stop offset="1" stop-color="#AD8079" stop-opacity="0"/>
</linearGradient>
<linearGradient id="paint4_linear_6743_1406" x1="26.084" y1="22.8715" x2="29.4292" y2="22.8715" gradientUnits="userSpaceOnUse">
<stop stop-color="#7F574B" stop-opacity="0.6"/>
<stop offset="0.59" stop-color="#9B7067" stop-opacity="0.22"/>
<stop offset="1" stop-color="#AD8079" stop-opacity="0"/>
</linearGradient>
<linearGradient id="paint5_linear_6743_1406" x1="25.2396" y1="21.7876" x2="22.4653" y2="21.7876" gradientUnits="userSpaceOnUse">
<stop stop-color="#7F574B" stop-opacity="0.6"/>
<stop offset="1" stop-color="#7F574B" stop-opacity="0.6"/>
</linearGradient>
<linearGradient id="paint6_linear_6743_1406" x1="22.2253" y1="22.8672" x2="18.4443" y2="22.8672" gradientUnits="userSpaceOnUse">
<stop stop-color="#7F574B" stop-opacity="0.6"/>
<stop offset="0.22" stop-color="#81594D" stop-opacity="0.57"/>
<stop offset="0.46" stop-color="#896055" stop-opacity="0.47"/>
<stop offset="0.7" stop-color="#966B62" stop-opacity="0.3"/>
<stop offset="0.94" stop-color="#A87B74" stop-opacity="0.06"/>
<stop offset="1" stop-color="#AD8079" stop-opacity="0"/>
</linearGradient>
<linearGradient id="paint7_linear_6743_1406" x1="19.5533" y1="23.9712" x2="19.5533" y2="29.6454" gradientUnits="userSpaceOnUse">
<stop stop-color="#7F574B" stop-opacity="0.8"/>
<stop offset="0.69" stop-color="#A0746C" stop-opacity="0.22"/>
<stop offset="1" stop-color="#AD8079" stop-opacity="0"/>
</linearGradient>
<linearGradient id="paint8_linear_6743_1406" x1="18.4983" y1="25.6844" x2="11.9824" y2="25.6844" gradientUnits="userSpaceOnUse">
<stop stop-color="#7F574B" stop-opacity="0.8"/>
<stop offset="0.69" stop-color="#A0746C" stop-opacity="0.22"/>
<stop offset="1" stop-color="#AD8079" stop-opacity="0"/>
</linearGradient>
<linearGradient id="paint9_linear_6743_1406" x1="24.1724" y1="31.3246" x2="28.8446" y2="31.3246" gradientUnits="userSpaceOnUse">
<stop stop-color="#7F574B" stop-opacity="0.8"/>
<stop offset="0.17" stop-color="#81594D" stop-opacity="0.75"/>
<stop offset="0.4" stop-color="#8A6156" stop-opacity="0.6"/>
<stop offset="0.67" stop-color="#976D63" stop-opacity="0.37"/>
<stop offset="0.97" stop-color="#AA7E76" stop-opacity="0.04"/>
<stop offset="1" stop-color="#AD8079" stop-opacity="0"/>
</linearGradient>
<linearGradient id="paint10_linear_6743_1406" x1="23.0376" y1="26.698" x2="23.0376" y2="22.0234" gradientUnits="userSpaceOnUse">
<stop stop-color="#7F574B" stop-opacity="0.8"/>
<stop offset="0.17" stop-color="#81594D" stop-opacity="0.75"/>
<stop offset="0.4" stop-color="#8A6156" stop-opacity="0.6"/>
<stop offset="0.67" stop-color="#976D63" stop-opacity="0.37"/>
<stop offset="0.97" stop-color="#AA7E76" stop-opacity="0.04"/>
<stop offset="1" stop-color="#AD8079" stop-opacity="0"/>
</linearGradient>
<linearGradient id="paint11_linear_6743_1406" x1="21.8324" y1="18.7677" x2="21.8324" y2="21.7627" gradientUnits="userSpaceOnUse">
<stop stop-color="#7F574B" stop-opacity="0.6"/>
<stop offset="0.59" stop-color="#9B7067" stop-opacity="0.22"/>
<stop offset="1" stop-color="#AD8079" stop-opacity="0"/>
</linearGradient>
<linearGradient id="paint12_linear_6743_1406" x1="18.1483" y1="18.2616" x2="18.1483" y2="11.5152" gradientUnits="userSpaceOnUse">
<stop stop-color="#7F574B" stop-opacity="0.6"/>
<stop offset="0.59" stop-color="#9B7067" stop-opacity="0.22"/>
<stop offset="1" stop-color="#AD8079" stop-opacity="0"/>
</linearGradient>
<linearGradient id="paint13_linear_6743_1406" x1="28.4587" y1="23.8882" x2="28.4587" y2="30.145" gradientUnits="userSpaceOnUse">
<stop stop-color="#7F574B" stop-opacity="0.6"/>
<stop offset="0.59" stop-color="#9B7067" stop-opacity="0.22"/>
<stop offset="1" stop-color="#AD8079" stop-opacity="0"/>
</linearGradient>
<linearGradient id="paint14_linear_6743_1406" x1="29.4292" y1="25.0053" x2="35.4586" y2="25.0053" gradientUnits="userSpaceOnUse">
<stop stop-color="#7F574B" stop-opacity="0.6"/>
<stop offset="0.59" stop-color="#9B7067" stop-opacity="0.22"/>
<stop offset="1" stop-color="#AD8079" stop-opacity="0"/>
</linearGradient>
</defs>
</svg>
